<svg width="159" height="36" viewBox="0 0 159 36" fill="none" xmlns="http://www.w3.org/2000/svg">
<rect width="159" height="36" rx="4" fill="#EFF6FF"/>
<path d="M51.7598 13.4176V20.0776C51.7598 20.4976 51.4198 20.8376 50.9998 20.8376C50.5798 20.8376 50.2598 20.4976 50.2598 20.0776V13.4176L47.7398 15.6376C47.4398 15.9176 46.9598 15.8976 46.6998 15.5776C46.4198 15.2776 46.4398 14.7976 46.7598 14.5176L50.4998 11.1976C50.7798 10.9376 51.1998 10.9376 51.4998 11.1776C51.4998 11.1976 51.4998 11.1976 51.4998 11.1976L55.2398 14.5176C55.5598 14.7976 55.5798 15.2776 55.3198 15.5776C55.0398 15.8976 54.5598 15.9176 54.2598 15.6376L51.7598 13.4176ZM56.1598 22.0776C56.1598 21.6576 56.4998 21.3376 56.9198 21.3376C57.3398 21.3376 57.6598 21.6576 57.6598 22.0776V23.9176C57.6598 24.3176 57.3398 24.6576 56.9198 24.6576H45.0798C44.6798 24.6576 44.3398 24.3176 44.3398 23.9176V22.0776C44.3398 21.6576 44.6798 21.3376 45.0798 21.3376C45.4998 21.3376 45.8398 21.6576 45.8398 22.0776V23.1576H56.1598V22.0776Z" fill="#2F80ED"/>
<path d="M76.9011 12.8182H78.7456V19.4702C78.7456 20.1993 78.5732 20.8407 78.2285 21.3942C77.8871 21.9477 77.4065 22.3802 76.7868 22.6918C76.167 23 75.4428 23.1541 74.6142 23.1541C73.7823 23.1541 73.0564 23 72.4366 22.6918C71.8168 22.3802 71.3362 21.9477 70.9949 21.3942C70.6535 20.8407 70.4828 20.1993 70.4828 19.4702V12.8182H72.3272V19.3161C72.3272 19.7403 72.42 20.1181 72.6056 20.4496C72.7946 20.781 73.0597 21.0412 73.4011 21.2301C73.7425 21.4157 74.1468 21.5085 74.6142 21.5085C75.0815 21.5085 75.4859 21.4157 75.8272 21.2301C76.1719 21.0412 76.4371 20.781 76.6227 20.4496C76.8083 20.1181 76.9011 19.7403 76.9011 19.3161V12.8182ZM80.6708 25.8636V15.3636H82.4407V16.6264H82.5451C82.6379 16.4408 82.7688 16.2436 82.9379 16.0348C83.1069 15.8227 83.3356 15.642 83.6239 15.4929C83.9123 15.3404 84.2802 15.2642 84.7276 15.2642C85.3176 15.2642 85.8496 15.415 86.3235 15.7166C86.8008 16.0149 87.1786 16.4574 87.457 17.044C87.7388 17.6274 87.8796 18.3433 87.8796 19.1918C87.8796 20.0303 87.7421 20.7429 87.467 21.3295C87.1919 21.9162 86.8174 22.3636 86.3434 22.6719C85.8694 22.9801 85.3325 23.1342 84.7326 23.1342C84.2951 23.1342 83.9322 23.0613 83.6438 22.9155C83.3555 22.7696 83.1235 22.594 82.9478 22.3885C82.7754 22.1797 82.6412 21.9825 82.5451 21.7969H82.4705V25.8636H80.6708ZM82.4357 19.1818C82.4357 19.6757 82.5053 20.1082 82.6445 20.4794C82.7871 20.8506 82.9909 21.1406 83.256 21.3494C83.5245 21.5549 83.8493 21.6577 84.2305 21.6577C84.6282 21.6577 84.9613 21.5516 85.2298 21.3395C85.4982 21.1241 85.7004 20.8307 85.8363 20.4595C85.9755 20.085 86.0451 19.6591 86.0451 19.1818C86.0451 18.7079 85.9772 18.2869 85.8413 17.919C85.7054 17.5511 85.5032 17.2628 85.2347 17.054C84.9663 16.8452 84.6315 16.7408 84.2305 16.7408C83.846 16.7408 83.5195 16.8419 83.2511 17.044C82.9826 17.2462 82.7788 17.5296 82.6396 17.8942C82.5037 18.2588 82.4357 18.688 82.4357 19.1818ZM91.2205 12.8182V23H89.4208V12.8182H91.2205ZM96.4022 23.1491C95.6564 23.1491 95.0101 22.9851 94.4632 22.657C93.9164 22.3288 93.4921 21.8698 93.1905 21.2798C92.8922 20.6899 92.7431 20.0005 92.7431 19.2116C92.7431 18.4228 92.8922 17.7318 93.1905 17.1385C93.4921 16.5452 93.9164 16.0845 94.4632 15.7564C95.0101 15.4283 95.6564 15.2642 96.4022 15.2642C97.1479 15.2642 97.7942 15.4283 98.3411 15.7564C98.888 16.0845 99.3105 16.5452 99.6088 17.1385C99.9105 17.7318 100.061 18.4228 100.061 19.2116C100.061 20.0005 99.9105 20.6899 99.6088 21.2798C99.3105 21.8698 98.888 22.3288 98.3411 22.657C97.7942 22.9851 97.1479 23.1491 96.4022 23.1491ZM96.4121 21.7074C96.8165 21.7074 97.1545 21.5964 97.4263 21.3743C97.6981 21.1489 97.9003 20.8473 98.0328 20.4695C98.1687 20.0916 98.2367 19.6707 98.2367 19.2067C98.2367 18.7393 98.1687 18.3168 98.0328 17.9389C97.9003 17.5578 97.6981 17.2545 97.4263 17.0291C97.1545 16.8037 96.8165 16.6911 96.4121 16.6911C95.9978 16.6911 95.6531 16.8037 95.378 17.0291C95.1062 17.2545 94.9024 17.5578 94.7665 17.9389C94.6339 18.3168 94.5676 18.7393 94.5676 19.2067C94.5676 19.6707 94.6339 20.0916 94.7665 20.4695C94.9024 20.8473 95.1062 21.1489 95.378 21.3743C95.6531 21.5964 95.9978 21.7074 96.4121 21.7074ZM103.786 23.1541C103.302 23.1541 102.866 23.0679 102.479 22.8956C102.094 22.7199 101.789 22.4614 101.564 22.12C101.342 21.7786 101.231 21.3577 101.231 20.8572C101.231 20.4264 101.31 20.0701 101.469 19.7884C101.629 19.5066 101.846 19.2812 102.121 19.1122C102.396 18.9432 102.706 18.8156 103.05 18.7294C103.398 18.6399 103.758 18.5753 104.129 18.5355C104.577 18.4891 104.94 18.4477 105.218 18.4112C105.496 18.3714 105.699 18.3118 105.825 18.2322C105.954 18.1494 106.018 18.0218 106.018 17.8494V17.8196C106.018 17.4451 105.907 17.1551 105.685 16.9496C105.463 16.7441 105.143 16.6413 104.726 16.6413C104.285 16.6413 103.935 16.7375 103.677 16.9297C103.422 17.1219 103.249 17.349 103.16 17.6108L101.479 17.3722C101.612 16.9081 101.831 16.5204 102.136 16.2088C102.441 15.8939 102.813 15.6586 103.254 15.5028C103.695 15.3438 104.182 15.2642 104.716 15.2642C105.084 15.2642 105.45 15.3073 105.815 15.3935C106.179 15.4796 106.512 15.6222 106.814 15.821C107.116 16.0166 107.357 16.2834 107.54 16.6214C107.725 16.9595 107.818 17.3821 107.818 17.8892V23H106.088V21.951H106.028C105.919 22.1631 105.765 22.362 105.566 22.5476C105.371 22.7299 105.124 22.8774 104.825 22.9901C104.53 23.0994 104.184 23.1541 103.786 23.1541ZM104.254 21.8317C104.615 21.8317 104.928 21.7604 105.193 21.6179C105.458 21.4721 105.662 21.2798 105.805 21.0412C105.951 20.8026 106.023 20.5424 106.023 20.2607V19.3608C105.967 19.4072 105.871 19.4503 105.735 19.4901C105.603 19.5298 105.453 19.5646 105.288 19.5945C105.122 19.6243 104.958 19.6508 104.795 19.674C104.633 19.6972 104.492 19.7171 104.373 19.7337C104.104 19.7701 103.864 19.8298 103.652 19.9126C103.44 19.9955 103.272 20.1115 103.15 20.2607C103.027 20.4065 102.966 20.5954 102.966 20.8274C102.966 21.1589 103.087 21.4091 103.329 21.5781C103.571 21.7472 103.879 21.8317 104.254 21.8317ZM112.462 23.1342C111.862 23.1342 111.325 22.9801 110.851 22.6719C110.377 22.3636 110.002 21.9162 109.727 21.3295C109.452 20.7429 109.315 20.0303 109.315 19.1918C109.315 18.3433 109.454 17.6274 109.732 17.044C110.014 16.4574 110.393 16.0149 110.871 15.7166C111.348 15.415 111.88 15.2642 112.467 15.2642C112.914 15.2642 113.282 15.3404 113.57 15.4929C113.859 15.642 114.087 15.8227 114.256 16.0348C114.425 16.2436 114.556 16.4408 114.649 16.6264H114.724V12.8182H116.528V23H114.759V21.7969H114.649C114.556 21.9825 114.422 22.1797 114.246 22.3885C114.071 22.594 113.839 22.7696 113.55 22.9155C113.262 23.0613 112.899 23.1342 112.462 23.1342ZM112.964 21.6577C113.345 21.6577 113.67 21.5549 113.938 21.3494C114.207 21.1406 114.411 20.8506 114.55 20.4794C114.689 20.1082 114.759 19.6757 114.759 19.1818C114.759 18.688 114.689 18.2588 114.55 17.8942C114.414 17.5296 114.212 17.2462 113.943 17.044C113.678 16.8419 113.352 16.7408 112.964 16.7408C112.563 16.7408 112.228 16.8452 111.96 17.054C111.691 17.2628 111.489 17.5511 111.353 17.919C111.217 18.2869 111.149 18.7079 111.149 19.1818C111.149 19.6591 111.217 20.085 111.353 20.4595C111.492 20.8307 111.696 21.1241 111.964 21.3395C112.236 21.5516 112.569 21.6577 112.964 21.6577Z" fill="#2F80ED"/>
</svg>
