<svg width="17" height="26" viewBox="0 0 17 26" fill="none" xmlns="http://www.w3.org/2000/svg">
<path d="M17 17.875C17 20.1283 16.1727 22.0458 14.518 23.6275C12.8633 25.2092 10.8573 26 8.5 26C6.14267 26 4.13667 25.2092 2.482 23.6275C0.827333 22.0458 0 20.1283 0 17.875V5.85C0 4.225 0.595 2.84375 1.785 1.70625C2.975 0.56875 4.42 0 6.12 0C7.82 0 9.265 0.56875 10.455 1.70625C11.645 2.84375 12.24 4.225 12.24 5.85V17.225C12.24 18.2217 11.8773 19.0667 11.152 19.76C10.4267 20.4533 9.54267 20.8 8.5 20.8C7.45733 20.8 6.57333 20.4533 5.848 19.76C5.12267 19.0667 4.76 18.2217 4.76 17.225V5.2H7.48V17.225C7.48 17.5067 7.57633 17.7396 7.769 17.9237C7.96167 18.1079 8.20533 18.2 8.5 18.2C8.79467 18.2 9.03833 18.1079 9.231 17.9237C9.42367 17.7396 9.52 17.5067 9.52 17.225V5.85C9.49733 4.94 9.163 4.17083 8.517 3.5425C7.871 2.91417 7.072 2.6 6.12 2.6C5.168 2.6 4.36333 2.91417 3.706 3.5425C3.04867 4.17083 2.72 4.94 2.72 5.85V17.875C2.69733 19.4133 3.25267 20.7188 4.386 21.7912C5.51933 22.8637 6.89067 23.4 8.5 23.4C10.0867 23.4 11.4353 22.8637 12.546 21.7912C13.6567 20.7188 14.2347 19.4133 14.28 17.875V5.2H17V17.875Z" fill="#38AEE0"/>
</svg>
